<?xml version="1.0" standalone="no"?>
<!DOCTYPE svg PUBLIC "-//W3C//DTD SVG 20010904//EN"
 "http://www.w3.org/TR/2001/REC-SVG-20010904/DTD/svg10.dtd">
<svg version="1.0" xmlns="http://www.w3.org/2000/svg"
 width="512.000000pt" height="512.000000pt" viewBox="0 0 512.000000 512.000000"
 preserveAspectRatio="xMidYMid meet">

<g transform="translate(0.000000,512.000000) scale(0.100000,-0.100000)"
fill="#000000" stroke="none">
<path d="M2558 4171 l-3 -943 -783 -356 c-430 -195 -779 -359 -775 -363 20
-18 1554 -919 1565 -919 19 1 1563 917 1561 927 -1 8 -1550 2583 -1559 2592
-2 2 -5 -420 -6 -938z"/>
<path d="M3333 1742 l-773 -457 0 -639 c0 -362 4 -636 9 -630 4 5 345 484 756
1064 412 580 760 1070 773 1088 13 17 20 32 16 31 -5 0 -357 -206 -781 -457z"/>
</g>
</svg>
